<svg xmlns="http://www.w3.org/2000/svg" width="25" height="26" viewBox="0 0 25 26">
    <g fill="none" fill-rule="evenodd" stroke="#595959" stroke-linecap="round">
        <path d="M21.06 3.338h2.382c.314 0 .572.257.572.571v20.969c0 .315-.258.57-.572.57H.962c-.314 0-.571-.255-.571-.57V3.909c0-.314.257-.57.572-.57h2.38"/>
        <path stroke-width=".75" d="M6.296 3.338L18.108 3.338"/>
        <path d="M21.06 21.911c0 .325-.265.59-.59.59H3.934c-.325 0-.59-.265-.59-.59V9.824c0-.325.265-.59.59-.59H20.47c.325 0 .59.265.59.59V21.91zM.391 6.286L24.014 6.286M7.772 9.234L7.772 22.501M12.202 9.234L12.202 22.501M16.631 9.234L16.631 22.501M3.343 13.656L21.06 13.656M3.343 18.079L21.06 18.079M6.296 4.223c0 .324-.265.59-.59.59H3.934c-.325 0-.59-.266-.59-.59V.979c0-.323.265-.59.59-.59h1.772c.325 0 .59.267.59.59v3.244zM18.108 4.223c0 .324.265.59.59.59h1.772c.325 0 .59-.266.59-.59V.979c0-.323-.265-.59-.59-.59h-1.772c-.325 0-.59.267-.59.59v3.244z"/>
    </g>
</svg>
