<svg xmlns="http://www.w3.org/2000/svg" width="18" height="19" viewBox="0 0 18 19">
    <g fill="none" fill-rule="evenodd" stroke="#595959" stroke-linecap="round">
        <path d="M15.164 2.44h1.714c.227 0 .412.187.412.417V18.18c0 .23-.185.417-.412.417H.693c-.226 0-.412-.187-.412-.417V2.857c0-.23.185-.418.412-.418h1.715"/>
        <path stroke-width=".75" d="M4.533 2.439L13.038 2.439"/>
        <path d="M15.164 16.012c0 .237-.192.431-.426.431H2.833c-.234 0-.425-.194-.425-.43V7.178c0-.237.19-.43.425-.43h11.905c.234 0 .426.193.426.43v8.833zM.281 4.594L17.29 4.594M5.596 6.748L5.596 16.443M8.786 6.748L8.786 16.443M11.975 6.748L11.975 16.443M2.407 9.98L15.163 9.98M2.407 13.212L15.163 13.212M4.533 3.086c0 .237-.19.43-.425.43H2.832c-.234 0-.425-.193-.425-.43V.716c0-.237.191-.431.425-.431h1.276c.234 0 .425.194.425.43v2.37zM13.038 3.086c0 .237.19.43.425.43h1.276c.234 0 .424-.193.424-.43V.716c0-.237-.19-.431-.424-.431h-1.276c-.234 0-.425.194-.425.43v2.37z"/>
    </g>
</svg>
