<svg xmlns="http://www.w3.org/2000/svg" width="17" height="21" viewBox="0 0 17 21">
    <g fill="none" fill-rule="evenodd" stroke="#FFF" stroke-linecap="round">
        <path d="M13.479 2.44h1.524c.201 0 .366.187.366.417V18.18c0 .23-.165.417-.366.417H.616c-.201 0-.366-.187-.366-.417V2.857c0-.23.165-.418.366-.418H2.14" transform="translate(1 1)"/>
        <path stroke-width=".75" d="M4.03 2.439L11.589 2.439" transform="translate(1 1)"/>
        <path d="M13.479 16.012c0 .237-.17.431-.378.431H2.518c-.208 0-.378-.194-.378-.43V7.178c0-.237.17-.43.378-.43h10.583c.208 0 .378.193.378.43v8.833zM.25 4.594L15.369 4.594M4.974 6.748L4.974 16.443M7.809 6.748L7.809 16.443M10.644 6.748L10.644 16.443M2.14 9.98L13.478 9.98M2.14 13.212L13.478 13.212M4.03 3.086c0 .237-.17.43-.378.43H2.518c-.208 0-.378-.193-.378-.43V.716c0-.237.17-.431.378-.431h1.134c.208 0 .378.194.378.43v2.37zM11.589 3.086c0 .237.17.43.378.43h1.134c.208 0 .377-.193.377-.43V.716c0-.237-.169-.431-.377-.431h-1.134c-.208 0-.378.194-.378.43v2.37z" transform="translate(1 1)"/>
    </g>
</svg>
