<svg xmlns="http://www.w3.org/2000/svg" width="14" height="19" viewBox="0 0 14 19">
    <g fill="none" fill-rule="evenodd" stroke="#FFF" stroke-linecap="round">
        <path d="M5.899.29C2.8.29.28 2.886.28 6.078c0 1.078.29 2.13.839 3.043l4.46 7.405c.085.141.235.228.397.228h.004c.163-.002.314-.09.398-.235l4.345-7.476c.519-.894.793-1.92.793-2.965C11.517 2.886 8.997.29 5.9.29z" transform="translate(1 1)"/>
        <path d="M9.088 5.766c0 1.814-1.428 3.286-3.189 3.286-1.762 0-3.189-1.472-3.189-3.286 0-1.815 1.427-3.286 3.19-3.286 1.76 0 3.188 1.471 3.188 3.286z" transform="translate(1 1)"/>
    </g>
</svg>
