<svg xmlns="http://www.w3.org/2000/svg" width="23" height="32" viewBox="0 0 23 32">
    <g fill="none" fill-rule="evenodd" stroke="#595959" stroke-linecap="round">
        <path d="M11.306.546C5.37.546.54 5.433.54 11.44c0 2.03.555 4.012 1.607 5.73l8.548 13.937c.164.266.451.43.762.43h.007c.313-.004.602-.171.763-.443l8.329-14.071c.993-1.683 1.52-3.613 1.52-5.583 0-6.007-4.832-10.894-10.769-10.894z"/>
        <path d="M17.419 10.854c0 3.415-2.737 6.185-6.112 6.185-3.377 0-6.112-2.77-6.112-6.185 0-3.417 2.735-6.185 6.112-6.185 3.375 0 6.112 2.768 6.112 6.185z"/>
    </g>
</svg>
