<svg xmlns="http://www.w3.org/2000/svg" width="17" height="17" viewBox="0 0 17 17">
    <path fill="#FFF" d="M14.51 10.99c-.925-.926-2.027-1.612-3.23-2.026 1.288-.887 2.134-2.372 2.134-4.05C13.414 2.204 11.21 0 8.5 0 5.79 0 3.586 2.204 3.586 4.914c0 1.678.846 3.163 2.134 4.05-1.203.414-2.305 1.1-3.23 2.026C.884 12.595 0 14.73 0 17h1.328c0-3.955 3.217-7.172 7.172-7.172 3.955 0 7.172 3.217 7.172 7.172H17c0-2.27-.884-4.405-2.49-6.01zM8.5 8.5c-1.977 0-3.586-1.609-3.586-3.586 0-1.977 1.609-3.586 3.586-3.586 1.977 0 3.586 1.609 3.586 3.586 0 1.977-1.609 3.586-3.586 3.586z"/>
</svg>
