<svg xmlns="http://www.w3.org/2000/svg" width="25" height="25" viewBox="0 0 25 25">
    <path fill="#595959" d="M21.339 16.161c-1.362-1.361-2.982-2.37-4.75-2.98 1.893-1.304 3.138-3.486 3.138-5.954C19.727 3.242 16.485 0 12.5 0 8.515 0 5.273 3.242 5.273 7.227c0 2.468 1.245 4.65 3.138 5.955-1.768.61-3.388 1.618-4.75 2.98C1.301 18.521 0 21.661 0 25h1.953c0-5.816 4.731-10.547 10.547-10.547 5.816 0 10.547 4.731 10.547 10.547H25c0-3.339-1.3-6.478-3.661-8.839zM12.5 12.5c-2.908 0-5.273-2.366-5.273-5.273 0-2.908 2.365-5.274 5.273-5.274 2.908 0 5.273 2.366 5.273 5.274 0 2.907-2.365 5.273-5.273 5.273z"/>
</svg>
